# xmcd
#
# Track frame offsets:
#	150
#	17072
#	31432
#	48855
#	64325
#	79798
#	95550
#	113633
#	132682
#	149604
#	163964
#	181387
#	196857
#	212330
#	228082
#	246165
#
# Disc length: 3533 seconds
#
# Revision: 1
# Processed by: cddbd v1.5.2PL0 Copyright (c) Steve Scherf et al.
# Submitted via: audiograbber 1.83.01
#
DISCID=e00dcb10
DTITLE=Compilation - CB60394
DYEAR=2009
DGENRE=Karaoke
TTITLE0=Keith, Toby - God Love Her
TTITLE1=Joey and Rory - Cheater Cheater
TTITLE2=Rucker, Darius - It Won't Be Like This For Long
TTITLE3=Buxton, Sarah - Space
TTITLE4=Stillwell, Matt - Shine
TTITLE5=Newfield, Heidi - Cry, Cry ('Til The Sun Shines)
TTITLE6=Lawrence, Tracy - You Can't Hide Redneck
TTITLE7=Rascal Flatts and Jamie Foxx - She Goes All The Way
TTITLE8=Keith, Toby - God Love Her
TTITLE9=Joey and Rory - Cheater Cheater
TTITLE10=Rucker, Darius - It Won't Be Like This For Long
TTITLE11=Buxton, Sarah - Space
TTITLE12=Stillwell, Matt - Shine
TTITLE13=Newfield, Heidi - Cry, Cry ('Til The Sun Shines)
TTITLE14=Lawrence, Tracy - You Can't Hide Redneck
TTITLE15=Rascal Flatts ftg. Jamie Foxx - She Goes All The Way
EXTD=
EXTT0=
EXTT1=
EXTT2=
EXTT3=
EXTT4=
EXTT5=
EXTT6=
EXTT7=
EXTT8=
EXTT9=
EXTT10=
EXTT11=
EXTT12=
EXTT13=
EXTT14=
EXTT15=
PLAYORDER=
